<?xml version="1.0" encoding="utf-8"?>
<!-- Generator: Adobe Illustrator 22.1.0, SVG Export Plug-In . SVG Version: 6.00 Build 0)  -->
<svg version="1.1" id="Layer_1" xmlns="http://www.w3.org/2000/svg" xmlns:xlink="http://www.w3.org/1999/xlink" x="0px" y="0px"
	 viewBox="0 0 1768 935.9" style="enable-background:new 0 0 1768 935.9;" xml:space="preserve">
<style type="text/css">
	.st0{fill:#FFFFFF;stroke:#231F20;stroke-miterlimit:10;}
	.st1{fill:#FFFFFF;stroke:#000000;stroke-miterlimit:10;}
	.st2{font-family:'ArialMT';}
	.st3{font-size:80px;}
	.st4{fill:#754C29;stroke:#231F20;stroke-miterlimit:10;}
	.st5{fill:#A97C50;stroke:#231F20;stroke-miterlimit:10;}
	.st6{fill:#48B972;stroke:#231F20;stroke-miterlimit:10;}
	.st7{fill:#F7E735;stroke:#231F20;stroke-miterlimit:10;}
	.st8{fill:#EF3D4B;stroke:#231F20;stroke-miterlimit:10;}
	.st9{fill:#417FC1;stroke:#231F20;stroke-miterlimit:10;}
	.st10{fill:#965AA4;stroke:#231F20;stroke-miterlimit:10;}
	.st11{fill:#FDFEFE;stroke:#231F20;stroke-miterlimit:10;}
	.st12{fill:#CBE08C;stroke:#231F20;stroke-miterlimit:10;}
	.st13{fill:#EFA36A;stroke:#231F20;stroke-miterlimit:10;}
	.st14{fill:#010101;stroke:#010101;stroke-width:4.536;stroke-miterlimit:10;}
	.st15{fill:#FFFFFF;stroke:#010101;stroke-width:4.536;stroke-miterlimit:10;}
	.st16{fill:#FFFFFF;stroke:#010101;stroke-width:2.232;stroke-miterlimit:10;}
	.st17{fill:#010101;stroke:#010101;stroke-width:1.152;stroke-miterlimit:10;}
	.st18{fill:#FFFFFF;stroke:#010101;stroke-width:9;stroke-miterlimit:10;}
</style>
<title>newedit</title>
<g id="Layer_1_1_">
	<path id="animal" class="st0" d="M73.9,96h1321.7c30.5,0,55.2,24.7,55.2,55.2v643.7c0,30.5-24.7,55.2-55.2,55.2H73.9
		c-30.5,0-55.2-24.7-55.2-55.2V151.2C18.6,120.7,43.3,96,73.9,96z"/>
</g>
<g id="text_bar">
	<rect x="211.7" y="808" class="st1" width="1145.8" height="104.4"/>
</g>
<text id="text" transform="matrix(1.2822 0 0 1 634.5853 893.0259)" class="st2 st3">color</text>
<g id="color_bay">
	<path id="background1" class="st4" d="M1538.8,115.9H1707c29.2,0,52.9,23.7,52.9,52.9v608.5c0,29.2-23.7,52.9-52.9,52.9h-168.1
		c-29.2,0-52.9-23.7-52.9-52.9V168.8C1486,139.6,1509.6,115.9,1538.8,115.9z"/>
	<path id="background2" class="st5" d="M1537.3,132.7h172.9c19.2,0,34.8,15.6,34.8,34.8v609.6c0,19.2-15.6,34.8-34.8,34.8h-172.9
		c-19.2,0-34.8-15.6-34.8-34.8V167.5C1502.5,148.3,1518.1,132.7,1537.3,132.7z"/>
	<circle id="green" class="st6" cx="1564.9" cy="552.2" r="51.6"/>
	<circle id="yellow" class="st7" cx="1564.9" cy="384" r="51.6"/>
	<circle id="red" class="st8" cx="1564.9" cy="216.5" r="51"/>
	<circle id="blue" class="st9" cx="1564.3" cy="707.2" r="51"/>
	<circle id="purple" class="st10" cx="1682.7" cy="216.5" r="51"/>
	<circle id="white" class="st11" cx="1682.7" cy="707.2" r="51"/>
	<circle id="lightgreen" class="st12" cx="1679.2" cy="550.3" r="51"/>
	<circle id="orange" class="st13" cx="1682.7" cy="384" r="51"/>
</g>
<g id="thurderbird">
	<g>
		<g>
			<path class="st14" d="M656.3,156c7.6-9.5,21.2-12.4,33.3-15c18-3.9,28.4-2,53.2-1.8c20.6,0.2,15.1-1.2,53.2-2.4
				c36.5-1.2,54.7-1.7,70.9,0.6c16.7,2.3,25.1,3.5,34.6,8.1c5.6,2.7,11.2,6.3,21.9,9.6c8,2.5,9.2,1.8,14.4,3.5
				c12.7,4.3,16.4,11.9,24.4,18.5c6.4,5.3,17.3,11.4,36.6,14.1c29.4-9.9,44.8-7.3,53.4-2.8c11.3,5.9,12.2,15.7,24.7,19.9
				c11.9,4,25.4,0,34.9-3.9c8.2-0.2,25.1,0.3,41,8.8c20.5,11,32.5,32.1,29.9,50.3c-1.6,11.8-8.7,17.1-5.4,27.9
				c2.7,8.8,10.4,15,16.5,18.8c2.1,19.9-5.6,31.7-10,37c-4.7,5.8-11,10.6-13.3,12.3c-16,12.3-26.2,12.2-28.8,20.3
				c-2.1,6.7,1.4,14.9,7.8,17.6c4.5,1.9,8.3,0.2,14.4,0c7.1-0.3,17.2,1.5,29.9,10.6c1.9,2.7,3.8,5.6,5.5,8.8
				c5.6,10,8.5,19.4,10,27.3c-3.7,4.3-7.8,10.7-5.5,16.8c2.2,5.9,8.3,6.5,12.2,13.2c3.6,6.2,2.1,12.3,0,20.3
				c-3.4,13.2-9,15.2-11.1,25.6c-1,4.6-1.4,11.8,2.2,21.2c-0.1,1.2-1.7,21.8-24.4,31.8c-19.3,8.5-38.5,2.6-41,1.8
				c-20.5,6.9-34.9,18.1-34.4,29.1c0.3,5.6,4.3,10.4,8.9,15.9c8.8,10.6,16.4,13.2,22.2,18.5c10,9.2,15.3,33.9,2.2,52
				c-15.2,21.1-48.3,25.2-58.8,26.5c-37.2,4.6-60.7-9.4-80.9,3.5c-8.2,5.2-12.2,12.3-12.2,12.3c-6.5,11.6,1.1,16.5-3.3,28.2
				c-5.9,15.6-25.5,23.1-28,24c-8.8,3.2-16.9,3.8-21.9,3.9c-7.8-6.2-17.7-12.4-25.5-10.3c-8.6,2.4-6.4,12.8-17.1,18.3
				c-10.4,5.3-27.6,3.3-36.2-4.2c-6.2-5.4-6.4-12.5-6.6-21.1c-0.5-17.5,7.6-23.8,2.2-30c-5.1-5.9-18.1-6.7-26.8-4.9
				c-9.6,1.9-14,6.9-30.8,22.6c-9.4,8.8-17.2,15.8-22.2,20.3c-6.4,4.1-16.3,9.1-28.8,9.7c-12.3,0.6-14.6-3.3-27.7-4.4
				c-25.3-2.2-32.8,11.3-57.1,8.3c-4.5-0.6-16.3-2-25-9.2c-10.7-8.8-4.8-16.4-14.4-24.7c-10.5-9.1-21.3-3.4-37.7-13.2
				c-3.4-2-15.7-9.5-18.8-21.2c-4.6-17.2,13.8-31.4,7.8-36.2c-1.7-1.3-5.4-2-14.4,0.8c-2.2,0.4-5.8,0.9-10.2,1.5
				c-8.8,1.1-12.7,1.1-19.7,2.1c-6.7,0.9-12.1,1.9-15.5,2.6c-7.1-0.7-17.4-2.2-29.3-5.8c-2.4-0.7-4.1-1.2-6.2-2.1
				c-6-2.6-22-9.4-23.3-20.3c-1.3-11.5,14.6-22.5,24.4-29.1c13.6-9.3,23.2-11,25.5-19.4c1.3-4.9,0.1-11.4-4.4-13.2
				c-6.1-2.5-16.2,4.5-21.1,7.9C458,626.9,461.4,636,449,642.9c-17.5,9.8-48.7,5-56.5-6.2c-2.7-3.9-1-6.2-2.2-17.6
				c-1.1-10.2-3.6-18.4-5.5-23.8c-4.1,2.4-13.4,7.2-26.6,7.9c-15.2,0.8-26.3-4.3-32.1-7.1c-3.1-1.5-34.9-17.2-31-38.8
				c1.4-8,7.9-17.4,18.2-21c7.9-2.8,11.4,0.2,21.8-1.9c10.3-2.1,22.2-8.2,27.3-16.9c7.2-12.6-2-26.7-8.4-36.9
				c-11-17.6-22.7-19-26.6-30.9c-2.8-8.4-1.5-21.7,20-42.3c-13.8-20.9-8.5-44.7,10-56.4c16.8-10.7,38.3-7.7,42.1-7.1
				c8.1,0.9,16.3,1.8,24.4,2.6c6.3-16.2,12.6-32.3,18.8-48.5c11.2-10.7,30.7-26.1,58.6-30.4c62.5-9.8,123.3,42.5,138.8,30.4
				c11.1-8.6-16.9-38.2-1.1-52c10.9-9.6,31.9-2,37.7-10.6c5.7-8.4-12.7-17.8-21.1-44.1C651.9,180.7,647.5,167.1,656.3,156z"/>
			<path id="box1" class="st15" d="M453.5,335.1c9.9-12.6,4.5-20.1,11.1-29.1c4.9-6.7,16.1-13.9,44.3-15.9c17,0.9,34,1.8,51,2.6
				c20.3,8.8,40.6,17.6,61,26.5c4.6,1.1,17.1,3.4,31-0.9c3.7-1.2,21.4-6.6,23.3-16.8c1.5-8.2-8.7-11-11.1-25.6
				c-1-6.1-1.7-10.2,1.1-14.1c7.6-10.4,28.9-4.4,37.7-15c4.7-5.7,3.1-12.8,2.2-16.8c-2.4-10.8-11-13.9-16.6-27.3
				c-2.2-5.1-3-9.5-3.3-12.3c-0.9-1.2-8.9-12.9-2.2-22.1c7.3-10,26.7-9.1,31-8.8c29.4,2.1,29.9,26.5,59.9,34.4
				c28.1,7.4,71.8-1,92-21.2c6.7-6.7,11.9-15.9,21.1-15.9c6.6,0,10.4,4.7,22.6,13.1c9.2,6.3,17.4,10.7,22.8,13.4
				c18.3,24.7,34.6,31,46.6,31.8c8.3,0.5,12.3-1.1,27.7,0c14.6,1,28.2,1.7,37.7,8.8c8,6,9.9,14.2,11.1,19.4c2.1,9-1.2,10.2,0,20.3
				c0.6,5.4,2,16.6,12.2,26.5c8.3,8,18.4,11.3,22.2,12.3c10.6,3,19.8,2.3,27.7,1.8c17.3-1.3,20.4-5.4,28.8-3.5
				c10.9,2.4,17.8,12,20,18.5c4.9,14.8-7.7,33.3-32.1,45c-4.3,3.6-11.1,10.5-13.3,20.3c-0.3,1.4-4.1,19.1,6.7,24.7
				c3,1.6,5.1,1.1,16.6,1.8c8.9,0.5,16.1,1.2,21.1,1.8c25.3,14.6,29.3,23.5,27.7,29.1c-1,3.5-4,5-7.8,13.2
				c-3.6,7.9-5.7,12.3-3.3,15.9c4.5,6.8,20.1,2.9,24.4,8.8c3.7,5.1-0.9,15.7-10,20.3c-16.5,8.4-34.3-10.4-65.4-6.2
				c-3,0.4-27.4,4-37.7,19.4c-9,13.5-2.6,29.5,0,36.2c6.8,17.2,18.2,20.8,15.5,30c-3,10.4-18.4,9.2-22.2,21.2
				c-2.9,9.2,3.1,19.6,8.9,25.6c10.2,10.5,18.2,8.3,25.5,15.9c12,12.4,7.9,36.5-7.8,50.3c-15.2,13.3-38.5,14.3-55.4,15
				c-33.7,1.4-47.1-8.8-66.5,0c-2.4,1.1-14.8,6.7-20,17.6c-3.3,7-0.4,9.3-3.5,19.6c-1.9,6.2-5.8,19.4-16.4,21.9
				c-4.2,1-8.3-0.2-16.6-2.6c-13.6-4-15.5-7.7-23.3-7.9c-9.5-0.3-16.7,5.2-17.2,5.5c-11.1,8.5-4.4,21.3-13.9,25.4
				c-4.5,1.9-10.3,1-13.7-0.9c-7.1-4-8.6-15.1-0.7-26.4c1.1-3.7,2.8-11.2,0-20.3c-3-9.7-9.6-16.1-12.9-18.9
				c-5.1-1.2-14.1-2.6-24.8-1c-3.6,0.5-10.3,1.4-16.6,4.9c-15.3,8.6-29.9,32.5-45.8,37.2c-0.4,0.1-1,0.3-1.8,0.5
				c-7.5,2-18.8,2.8-25.6-0.7c-3.5-1.8-5.5-4.6-8.9-15c-6.9-21.5-3.4-25.4-8.9-32.6c-7.7-10.2-23-13.3-31-15
				c-4-0.8-25.8-5.2-45.5,3.5c-24.9,11.1-24.7,33.9-41,34.4c-6.8,0.2-14-3.5-16.6-7.9c-3.7-6.1,2.9-10.4,4.4-22.9
				c0.5-3.8,2.3-18.6-7.8-24.7c-3.9-2.4-8.3-2.4-15.5-2.6c-24.9-1-33.1,5.1-48.8,4.4c-17-0.8-38.2-9.3-38.8-19.4
				c-0.6-8.8,14.3-19.1,36.6-22.9c6.7-24.2,3.4-44.5-10-50.3c-1.2-0.5-4-1.7-7.8-1.8c-13-0.3-18.4,12.7-41,28.2
				c-11.3,7.7-16.7,9.2-19.2,9.7c-1.1,0.2-20.6,4.3-29.6-3.5c-9.5-8.3,3.2-20.7-7.8-32.6c-5.5-6-14.1-8.6-16.5-9.3
				c-9.5-2.8-17.8-2-21.4-1.4c-15,3.8-29.9,0.9-37.5-6.9c-5.3-5.5-8.3-14.7-3.3-20.3c4-4.5,10.6-3.6,21.1-6.2
				c18.6-4.7,35.5-8.9,43.2-19.4c8.2-11.2,3.4-26-2.2-34.4c-6.2-9.2-11.5-8-21.1-18.5c-9.8-10.8-20.1-29.7-11.1-38.8
				c4.3-4.4,11.8-5,21.1-6.2c3.8-0.5,7.1-0.6,9.9-0.5c3.1,0.1,5.8,0.3,8.2,0.5c2.4,0.2,4.3,0.4,5.9,0.6c4.3,0.5,7.3,1,8.2,1.1
				c11.6,1.7,21.3-0.9,21.3-0.9c3.6-1,7.1-3,14.1-7.1c8.3-4.9,12.5-7.3,15.5-10.6c5.9-6.4,7.4-13.1,7.8-16.8
				c0.4-3.6-0.1-6.2-1.1-11.5c-1.4-7.2-2.1-11.1-4.4-15c-6.5-10.7-18.8-10.1-20-16.8C438.1,346.4,446,344.6,453.5,335.1z"/>
			<path class="st15" d="M329.3,579.4"/>
		</g>
		
			<ellipse id="box4" transform="matrix(3.499979e-03 -1 1 3.499979e-03 13.9189 780.6801)" class="st16" cx="398.7" cy="383.4" rx="35.2" ry="51.1"/>
		
			<ellipse id="box5" transform="matrix(3.499979e-03 -1 1 3.499979e-03 862.2667 1370.5636)" class="st16" cx="1118.8" cy="252.6" rx="35.2" ry="51.1"/>
		
			<ellipse id="box6" transform="matrix(3.499979e-03 -1 1 3.499979e-03 -73.5595 1406.0505)" class="st16" cx="668.7" cy="739.9" rx="35.2" ry="51.1"/>
		
			<ellipse id="box7" transform="matrix(0.9989 -4.670042e-02 4.670042e-02 0.9989 -23.4437 54.0716)" class="st16" cx="1145.5" cy="528.8" rx="51" ry="35.3"/>
		<path id="chest_1_" class="st17" d="M461,484.8c-0.9-0.3,8-12.1,23.5-19.4c1.8-0.9,5.5-2.5,10-5.3c4.9-3,6.8-4.8,10-7
			c6.2-4.3,7.8-3.7,16.7-8.8c10.9-6.2,24.3-16.1,26.8-17.6c0.3-0.2,0.5-0.3,0.5-0.3c0.6-0.3,1.5-0.9,2.7-1.6
			c3.1-1.8,5.6-3.1,33.5-19.1c13.1-7.5,19.3-11.2,30.1-15.8c15.1-6.5,26.4-9.5,30-10.4c2.7-0.7,14.4-3.6,26.7-5.1
			c33.2-3.9,56.2,7.9,66.6,2.5c4.1-2.1,3.7-5.5,3.4-8.9c-2-22.6,1.7-43.3,7.1-55.4c4.5-10.1,15.1-25,26.8-24.8
			c8.7,0.2,17.8,8.9,19.9,10.9c3.9,3.8,4.4,5.9,6.6,9c9.1,12.8,30.8,19.3,29.8,20c-0.8,0.5-15.2-3.6-29.9-9.3
			c-5.4-2.1-10.5-4.3-16.6-3.8c-4.3,0.3-7.4,1.9-10,3.5c-7.2,4.5-10.5,10.3-13.5,19.5c-3.1,9.6-0.5,6.3-3.6,28.6
			c-0.7,4.7-1.3,8.5,3.2,10.8c1.8,0.9,4.6,1.6,20,2c7.1,0.2,10.7,0.3,16.6,0.2c8.6-0.1,21.5,0.5,39.9,4l0,0
			c21.8,0.2,39.8,11.1,39.8,11.1c29.3,12.6,50.4,33.7,53,36.3c3.7,3.8,6.7,7.3,13.2,12.7c7.4,6.1,12.3,8.8,23.2,16.3
			c6.1,4.2,10.7,7.6,19.8,14.5c13.1,9.8,18.3,14.4,43,34.4c15.8,12.8,27.8,21.1,26.4,21.7c0,0-0.3,0.1-10-3.7
			c6.7-5.5-15.9,11.1-16.8,17.7c-0.5,3.8,1.6,4.3-0.1,7.2c-2.2,3.7-6.6,4.2-13.4,8.8c-7.3,5-8.9,9.1-10.1,8.8
			c-1.1-0.2-1.1-4.9,3.4-8.9c5-4.5,11.5-4.7,13.4-8.8c1-2.1-0.6-2.4,0-5.4c0.8-3.8,3.9-6.2,6.7-8.9c4.3-4,9.3-8.6,10.1-12.4
			c1.3-5.9-7.7-9.8-26.4-21.7c-6.3-4-15.6-10.1-26.5-18.2c-0.9-0.2-2.2-0.3-3.3,0c-2.6,0.6-3,2.8-3.4,5.3
			c-1.4,8.7-1.2,10.4-3.4,12.5c-0.1,0.1,0,0-6.7,3.5c-4.4,2.3-6.6,3.5-6.7,3.5c-7,4.5,2.5,10.7-3.5,16.1c-3.9,3.4-8.8,1.7-13.4,5.2
			c-6.3,4.8,1.5,9.3-3.5,16.1c-4.6,6.2-16.2,9.1-16.7,8.8c-0.6-0.3,11.2-3.9,13.4-10.6c1.6-5.1-3.6-7.5,0.1-12.5
			c0.8-1,2.5-3.4,6.7-5.3c4.6-2.1,7.8-1.7,10-3.5c2.3-1.9-0.1-3.4,0.1-7.2c0.2-4.7,4.1-8.2,6.7-10.7c5.4-4.9,8.1-3.9,10-7
			c2.9-4.8-3.2-7.5,0.1-12.5c2.1-3.3,5.2-2.8,6.7-5.3c4.2-6.8-15.3-15.3-34.5-28.5c-2.7-1.8-7.9-5.5-8.5-6c-3.2-2.3-5.3-3.8-7.5-5.5
			c-1.1-0.8-1.2-1.5-2.4-1.8c-2.7-0.6-7.5,1.2-10,3.5c-4.8,4.2,0.6,8-3.4,14.3c-1.1,1.6-2.3,2.8-3.4,3.5c-2.6,2-5,2.6-6.7,3.5
			c-6.3,3.3,1.1,8.2-3.4,14.3c-3.7,4.9-10,3.6-13.4,8.8c-2.6,4,0.2,6.1-3.4,10.7c-1.9,2.4-4,3.4-6.7,5.3c0,0-7.7,5.4-16.8,23.1
			c0,0,1-5.9,3.4-10.7c1.6-3.2,4.4-6.3,10.1-12.4c4.5-4.9,6.2-6.1,6.7-8.9c0.8-3.9-1.7-4.7,0.1-7.2c2.6-3.5,8.8-3.1,13.4-7
			c2-1.7,2.5-3.5,3.4-7.1c1.8-7.1-0.9-10.2,3.4-12.5c2.5-1.3,3.8-0.5,6.7-1.7c2-0.9,3.3-18,3.5-16.1c0,0,9.6-3.5,10-7
			c0.3-2.3-3.7-2.9-9.9-7.3c-6.5-4.5-5.1-5.9-13.2-12.7c-2.3-2-5.3-4.5-9.9-7.3c-10.1-6.1-21.8-10-23.2-9.2
			c-0.9,0.5,3.2,2.2,3.3,5.4c0,1.6-0.9,3.7-3.4,5.3c-2.8,1.9-5.4,1.8-6.7,3.5c-0.8,1.1-0.4,1.8,0,3.6c0.3,1.5,1,4.8-0.1,7.2
			c-1.3,2.9-4.7,3.1-10,7c-3.4,2.6-5,4.8-6.7,7.1c-4.5,6.2-2.6,8.3-6.8,14.2c-3.1,4.4-4.3,3.5-6.7,7.1c-5.6,8.4,2.1,11.7-3.5,17.8
			c-4.2,4.6-9.3,3.6-13.4,8.8c-3.3,4.2-0.9,6.2-3.4,10.7c-1.5,2.8-4.9,6.6-13.4,10.6c3.4-3.6,5.5-6.7,6.7-8.9
			c0.9-1.5,1.7-3.4,3.4-7.1c2.7-6,2.5-6.1,3.4-7.1c3.2-3.7,6.6-3.6,10-7c1.5-1.5,2.2-4,3.4-8.9c2.1-8.4,1.2-9.3,3.4-12.5
			c2.7-3.9,4.4-3.2,6.7-7.1c2.8-4.6,0.5-5.9,3.4-10.7c1.8-2.9,4.2-5,6.7-7.1c5.9-5,7.6-4.2,10-7c5.1-6-2.5-9.7,3.4-14.3
			c2.9-2.2,6.8-3,6.7-5.3c-0.1-1.5-1.8-2.6-3.3-3.6c-1.8-1.2-6.6-3.9-10-3.7c-7.3,0.4-7.3,14.9-13.6,30.3
			c-0.9,2.3-2.8,6.3-16.9,26.7c-39,56.3-58.5,84.4-64,88.8c-2.6,2.1-7.9,5.9-6.7,10.7c1.3,5.6,10.4,7.2,13.2,14.4
			c1.6,4.3-1.4,4.1-0.1,8.9c2.1,7.7,9.8,8.1,13.2,16.2c2.2,5.4-0.6,6.7,3.2,10.8c2.9,3.1,8.2,6.2,9.9,7.3c4.6,2.7,4.9,2.3,6.6,3.6
			c3.8,3,3.4,6.1,3.2,12.6c-0.3,8.1-1.3,8.3-0.1,10.7c0.4,0.8,1.5,2.7,9.9,9c3.2,2.4,7.7,5.6,13.2,9.1l-23.2-11
			c-4.1-7.5-6.2-11.2-6.6-12.6c-1.6-6.5,0.1-8.4-3.2-12.6c-2.9-3.6-5.4-3.4-9.9-7.3c-7.7-6.5-3.5-9.5-9.8-18
			c-5.4-7.2-9.1-6.1-13.2-12.7c-3.5-5.6-1.2-7.1-3.2-16.1c-2.4-10.9-6.5-11.8-6.5-18c-0.1-8.7,8-14.8,13.5-19.5
			c3.3-2.8,0.4-0.7,37.1-56.8c6.9-10.6,12.7-21.5,20.2-32c3.2-4.4,7.4-10,10.1-17.8c1-2.9,3.4-10.7,3.4-10.7
			c0,0,10.1-14.2,10.1-14.2c-4.4-0.7-11.3-1.6-20-2c-8.6-0.4-10.9,0.1-20-0.2c-11.6-0.4-11.4-1.4-23.3-2
			c-12.8-0.7-12.1,0.5-26.6-0.3c-5-0.3-11.5-0.8-21.2-1.5c-2.9-0.2-5.8-0.4-8.7-0.7c-16.9-1.4-23.3-2.2-26.6-0.3
			c-3.9,2.3,0,6.7,3.2,12.6c5.5,9.7,2.2,10.7,6.4,26.9c3.6,13.7,6.2,14.1,13,32.3c12.5,33.4,7.6,42.3,19.5,59.2
			c3.4,4.8,4.4,7.4,6.6,12.6c6,14.6,2.3,19.3-0.2,21.5c-3,2.7-4.2,1.6-10,5.3c0,0-6.9,4.3-16.8,21.3c0,0-8.3,5-13.4,10.6
			c-4.1,4.5-5.5,8.9-6.8,12.4c-1.9,5.5-0.8,6.5-3.4,8.9c-3.8,3.5-8.1,3.4-13.4,7c-4,2.8-5.2,5.5-6.7,8.9c-4.2,9.3,1.8,11.7-3.5,16.1
			c-3.8,3.2-22.4,9.2-16.7,7c11.9-8.9,13.4-14.2,13.4-14.2c1.3-4.4-1.7-4.4,0.1-8.9c2-5.2,7.5-8.9,10.1-10.6c5.6-3.7,6.8-2.7,10-5.3
			c7-5.4,0.3-9.1,6.8-17.8c2.3-3.1,5.8-6.3,6.7-7.1c3-2.7,5.5-4.4,6.7-5.3c6.3-4.6,8.4-8.9,16.8-23.1c7.1-2.6,15.7-6.7,16.7-12.3
			c0.9-4.9-4.3-8.9-6.6-10.8c-8.8-7.3-3.3-9.8-16.2-50.2c-5.5-17.1-5.3-18.9-9.7-30.5c-5.3-14-5.7-11.8-9.8-23.4
			c-8.7-24.5-13.1-36.7-13-37.7c0.2-1.7,0.8-5.3-3.3-7.2c-5.4-2.5-17.8-1.4-20,1.6c-2.3,3,8.4,5.3,9.9,12.6c0.7,3.3-1.2,4.2-0.1,8.9
			c0.9,3.7,2.9,6.6,3.3,7.2c3.7,5.4,7.2,6.1,6.6,9c-0.4,2-2.2,2-3.4,5.3c-0.5,1.4-1.1,3.2,0,5.4c0.8,1.6,1.9,2.1,3.3,3.6
			c2.2,2.3,2.6,4.2,3.3,7.2c1.2,5.5-0.7,6.4-0.1,10.7c0.8,5.5,4,5,6.6,12.6c1.9,5.6,0.5,6.7,3.2,10.8c2.4,3.6,3.9,3.3,6.6,7.2
			c1.6,2.3,4.1,6.1,3.2,10.8c-0.7,3.6-2.6,3.6-3.4,7.1c-1.3,6.1,3.6,10.7,3.2,10.8c-0.4,0.1-7.8-5.6-6.6-12.6c0.7-4.2,3.8-5,3.4-8.9
			c-0.4-3.5-3.2-5-6.6-9c-3.4-4-1.4-3.6-6.5-14.4c-4.6-9.6-6.8-11.4-6.5-16.2c0.1-1.4,0.4-2.9,0-5.4c-0.2-1.6-0.7-5.1-3.3-9
			c-3.3-5-5.8-4.3-6.6-7.2c-1.2-4.4,4.7-5.7,3.4-10.7c-0.4-1.5-0.9-1.1-3.3-5.4c-2-3.6-3-5.4-3.3-7.2c-0.7-4.3,2-5.5,0.1-8.9
			c-0.4-0.7-0.6-0.8-3.3-3.6c-7.1-7.4-7.4-8.6-9.9-9c-3.6-0.6-7.6,1-13.3,3.4c-5.4,2.3-8.7,4.4-10,5.3c-14.1,9-27.4,8-30.1,14
			c-0.5,1.1,0.8,3.7,3.3,9c4.1,8.7,6.7,10,6.5,14.4c-0.2,5.1-3.8,4.6-3.4,8.9c0.4,5.1,5.3,5.6,9.9,14.4c0.1,0.1,0,0,3.3,7.2
			c3.3,7.2,3.2,7.1,3.3,7.2c3.6,9.3-1.2,10.7,3.2,16.1c1.9,2.4,3.7,3.3,6.6,7.2c1.2,1.7,2,3,3.3,5.4c2.6,4.7,3.9,7,3.3,7.2
			c-1.2,0.3-8.3-7.4-9.9-9c-5.4-5.8-6.2-7.8-6.6-9c-1-3.4,0.7-3.3,0.1-7.2c-1-6.3-6.3-12.3-6.6-12.6c-0.9-1-2.7-2.8-3.3-5.4
			c-0.4-1.7-0.1-3,0-3.6c1.1-6.7-14.5-10.9-13.2-18c0.4-2.2,1.8-1.6,3.4-5.3c2.3-5.4,0.5-9.9,0.1-10.7c-1.8-4.1-3.9-3.7-6.6-9
			c-2-4-1.8-5.1-3.3-5.4c-4.4-0.8-8.9,8.7-26.8,15.8c-7.7,3.1-13.4,5.2-13.4,5.2c-7.8,3-11.7,4.3-13.4,7c-0.7,1.1-0.6,2.4-0.3,5
			c0.7,5.9,2.7,8,3.5,12.9c0.7,4.5-0.8,3.8-0.1,7.2c1.6,7,7.8,7.9,9.9,14.4c1.8,5.7-2.6,6.1-0.1,10.7c2.9,5.4,9.3,5.4,13.2,10.9
			c4.4,6.3,0.5,12.5-0.1,12.5c-0.5,0,0.7-4.1-3.3-9c-2.3-2.8-3.6-2.5-6.6-5.4c-6.7-6.4-6.6-13.5-6.5-16.2c0-1.9,0.3-2.2,0-3.6
			c-0.5-2.2-1.9-3.8-6.6-9c-3.3-3.7-3.1-3.4-3.3-3.6c-4.4-5.8-0.6-9.2-3.2-17.9c-1-3.4-1.5-5.1-3.3-5.4c-5.1-0.9-10.5,9.3-30.1,15.8
			c-3.7,1.2-6.1,1.7-10,3.5c-3.2,1.5-10.7,4.9-13.4,10.6c-1.8,3.7-0.8,6.8-0.1,8.9c1.8,5.6,5.9,7,6.6,12.6c0.3,2.9-0.7,2.9,0,5.4
			c1,3.9,3.7,5,6.6,9c3.8,5.3,4.2,10.6,3.2,10.8c-0.6,0.1-1.8-1.7-3.3-3.6c-3.3-4.5-3.6-6.2-5.1-8.7c-0.7-1.2-1.4-2-1.5-2.1
			c-0.5-0.6-0.9-1.1-1.3-1.5c-1.3-1.3-2.3-1.8-3-2.8c-0.8-1-1.1-2.6-1.6-5.8c-0.5-3-0.2-3.2-0.7-4.7c-0.4-1.4-1-2.4-2.3-4.3
			c-2.7-4.2-3.4-4.1-3.7-5.6c-0.3-2.3,0.9-4.6-0.2-5.5c0,0-0.1-0.2-0.4-0.2C468.8,478.9,461.7,485,461,484.8z"/>
		<path id="box2" class="st15" d="M691.1,392c2.9-4.3,9.6-5.4,37-3c25.3,2.3,31.2,4.3,46.2,5.7c38.3,3.7,60.2-3.3,63.2,4.4
			c1.5,3.7-2.6,8.1-7.6,14.1c-5.6,6.8-17.8,27.5-42.4,69.1c-4.4,7.4-12.5,21.4-25.4,38.8c-9.9,13.3-15.8,19.4-20.6,18.2
			c-3.3-0.9-4.4-5-8.5-17c-3.4-10.2-7.4-20.1-10.9-30.3c-5.8-16.9-5.9-14.7-12.3-33c-5.1-14.5-3.9-12.7-10.5-32.9
			C690.8,399.9,688.4,396,691.1,392z"/>
		<path id="box3" class="st18" d="M889.5,188.9c-1.5-2.4-2.2-3-3.3-3.3c-3.3-1.1-8.3-0.3-10.1-1.8c-0.6-0.5-0.3-0.8,0-3.3
			c-2.3-5.7-3.3-6.7-3.3-6.7c-3.3-1.7-3.6-2.4-3.2-2.7c0.6-0.5,3.2-0.6,3.2-0.6s-0.4-1.8,0-3.3c0.1-0.4,1.3-1.4,3.4-3.3
			c2.8-2.5,3.2-2.5,3.4-3.3c0.6-1.9-0.6-2.8,0-3.3c1.3-1.1,9.7,0.5,10.1,0.1c0.5-0.6-13.3-3.8-30.1-8.6c-3.9-1.1-4.8-1.4-6.7-1.7
			c-10.6-1.9-20.5,0.4-26.9,1.4c-2.8,0.4-15.3,0.2-40.3-0.4c-0.2,0-0.6,0-0.7,0c0,0-57-1.3-63.2,6c-0.6,0.7-0.8,1.5-0.8,1.5
			c-0.3,1.5,0.4,2.9,0.8,3.4c0.9,1.5,2,2.1,3.3,3.3c0.9,0.9,1.9,2,2.5,3.5c-1.3,0.2-3.8,0.8-5.9,1.4c-2.1,0.7-1.6,0.9-6.7,3.2
			c-1.9,0.9-2.4,1-3.4,1.6c-1,0.6-2.8,1.7-3.4,3.3c-0.1,0.2-0.1,1.2,0,3.3c0,1.4,0,1.5,0,1.7c-0.4,1.7-2.7,2.9-3.4,3.3
			c-5.2,2.9-7.5,9.7-6.8,9.9c0.7,0.1,3.6-5.8,10.2-9.8c0.7-0.5,2.6-1.6,3.4-3.3c0.6-1.4-0.1-1.9,0-3.3c0.2-2.4,2.8-5.1,6.8-6.6
			c2-0.7,9-2.1,6.7-1.6c1.1,0.6,2.2,1.1,3.3,1.7c1.1,0.6,4,2.4,3.3,1.7c0,0,10,8.4,10,8.4c0,0-3.3,1.6-3.4,1.6
			c-5.8,2.8-10.2,9.8-10.2,9.8c-3.9,5.9-6.3,9.3-3.5,13.2c1.9,2.6,4.1,2.6,6.7,5c5.4,5.2,0.1,10.1-3.5,18.2c-0.9,2-1.4,3.5-1.6,4.7
			c1.9-2,5.1-3.5,8.4-8c3.1-4.3,6.1-8.5,3.5-13.2c-2.7-4.8-8.8-5.3-10-10c-0.8-3.3,1.4-5.9,3.4-8.2c3.4-3.9,10.7-10.3,16.9-9.8
			c1.9,0.2,2.4,0.9,6.7,3.4c3.9,2.3,7.6,4,10,5.1l0,0c0,0-1.4,9.1-3.5,16.5c-3.3,11.6-7.9,18-6.9,18.1c1.1,0.2,7.5-5.7,10.2-13.1
			c2.6-7.4,3.5-13.2,3.5-13.2c0.4-2.8,0.7-6.3,3.4-6.6c1.7-0.2,2.8,1,6.7,1.7c4.8,0.8,7.2-0.4,10.1,0.1c6.8,1.1,6.6,10.1,6.6,11.6
			c-0.1,5.8-3.1,10.5-6.9,16.5c-1.7,2.7-2.2,3-3.4,4.9c-3.6,5.5-5.2,10.9-5.3,15.8c1.8-3.1,4.4-5.8,7.5-8c1-2.5,2.8-4.5,5.1-6.3
			c1.3-3.2,3.4-6,6-8.3c1.4-3.2,2.6-6.4,3.6-9.6c2.4-7.5,3.9-16.2,6.9-16.5c0.9-0.1,1.8,0.1,6.7,0.1c5.4,0,5.9-0.2,6.7,0.1
			c2.7,1-0.6,3.8-0.1,8.3c0.3,2.5,1.5,1.9,3.3,6.7c1.7,4.4,1.2,5.9,3.3,10c1.4,2.8,3,5,3.3,5c0.4,0-2.4-4.2-3.3-10
			c-0.6-3.9,0.4-3.7,0.1-8.3c-0.5-8.3-3.9-11.4,0.1-13.2c1.7-0.8,2.3-0.2,10.1-1.6c6.8-1.2,8.2-2,10.1-1.6c1,0.2,2.7,1,3.3,6.7
			c0.3,3.4-0.2,5-0.1,6.6c0.4,5.1,5.2,13.1,16.6,16.7c4.1,1.3,7.2,1.4,10,3.4c1.6,1.1,2.5,2.3,2.9,3.5c2.2,2.2,4.2,4.6,5.7,7.1
			c0.5,0.3,1,0.6,1.4,1c0.5-2.3,2.2-9.7-6.6-14.9c-4.8-2.8-7.4-1.8-13.4-5.1c-7-3.8-9.1-8.1-10-10c-1.7-3.6,0-4.3,0.1-14.9
			c0-0.6,0-5,0-5s10.1-8.2,10.1-8.2c0,0,2.4,1,3.3,1.7c2.2,1.5-1.4,3.1,0,5c1.9,2.6,7.7,2.1,13.4,5.1c5.8,3,5.9,6.8,6.7,6.7
			C893.6,197.1,891.7,192.6,889.5,188.9z"/>
	</g>
</g>
<script  type="text/javascript">
	<![CDATA[
<!-- click to show text -->
	
    var numberz = ['green', 'yellow', 'red', 'blue', 'purple', 'white', 'lightgreen', 'orange'];

	var greenPress = document.getElementById("green");
	greenPress.addEventListener("mousedown", function(){
	document.getElementById("text").innerHTML = (numberz[0]);
	});

	var yellowPress = document.getElementById("yellow");
	yellowPress.addEventListener("mousedown", function(){
	document.getElementById("text").innerHTML = (numberz[1]);
	});

	var redPress = document.getElementById("red");
	redPress.addEventListener("mousedown", function(){
	 document.getElementById("text").innerHTML = (numberz[2]);
	});

	var bluePress = document.getElementById("blue");
	bluePress.addEventListener("mousedown", function(){
	document.getElementById("text").innerHTML = (numberz[3]);
	});

	var purplePress = document.getElementById("purple");
	purplePress.addEventListener("mousedown", function(){
	document.getElementById("text").innerHTML = (numberz[4]);
	});

	var whitePress = document.getElementById("white");
	whitePress.addEventListener("mousedown", function(){
	document.getElementById("text").innerHTML = (numberz[5]);
	});

	var lightgreenPress = document.getElementById("lightgreen");
	lightgreenPress.addEventListener("mousedown", function(){
	document.getElementById("text").innerHTML = (numberz[6]);
	});

	var orangePress = document.getElementById("orange");
	orangePress.addEventListener("mousedown", function(){
	document.getElementById("text").innerHTML = (numberz[7]);
	});

	<!-- click event -->

<!--
	var click1 = document.getElementById("box1");
	click1.addEventListener("mousedown", function(){
	var colorc = document.getElementById("text").innerHTML;
	if(colorc == 'green'){
		click1.style.fill = '#48b972';
	} else if(colorc == 'yellow'){
		click1.style.fill = '#f7e735';
	} else if(colorc == 'red'){
		click1.style.fill = '#ef3d4b';
	} else if(colorc == 'blue'){
		click1.style.fill = '#417fc1';
	} else if(colorc == 'purple'){
		click1.style.fill = '#965aa4';
	} else if(colorc == 'white'){
		click1.style.fill = '#fdfefe';
	} else if(colorc == 'lightgreen'){
		click1.style.fill = '#cbe08c';
	} else if(colorc == 'orange'){
		click1.style.fill = '#efa36a';
	} 
	});

	var click2 = document.getElementById("box2");
	click2.addEventListener("mousedown", function(){
	var colorc = document.getElementById("text").innerHTML;
	if(colorc == 'green'){
		click2.style.fill = '#48b972';
	} else if(colorc == 'yellow'){
		click2.style.fill = '#f7e735';
	} else if(colorc == 'red'){
		click2.style.fill = '#ef3d4b';
	} else if(colorc == 'blue'){
		click2.style.fill = '#417fc1';
	} else if(colorc == 'purple'){
		click2.style.fill = '#965aa4';
	} else if(colorc == 'white'){
		click2.style.fill = '#fdfefe';
	} else if(colorc == 'lightgreen'){
		click2.style.fill = '#cbe08c';
	} else if(colorc == 'orange'){
		click2.style.fill = '#efa36a';
	} 
	});

	var click3 = document.getElementById("box3");
	click3.addEventListener("mousedown", function(){
	var colorc = document.getElementById("text").innerHTML;
	if(colorc == 'green'){
		click3.style.fill = '#48b972';
	} else if(colorc == 'yellow'){
		click3.style.fill = '#f7e735';
	} else if(colorc == 'red'){
		click3.style.fill = '#ef3d4b';
	} else if(colorc == 'blue'){
		click3.style.fill = '#417fc1';
	} else if(colorc == 'purple'){
		click3.style.fill = '#965aa4';
	} else if(colorc == 'white'){
		click3.style.fill = '#fdfefe';
	} else if(colorc == 'lightgreen'){
		click3.style.fill = '#cbe08c';
	} else if(colorc == 'orange'){
		click3.style.fill = '#efa36a';
	} 
	});

	var click4 = document.getElementById("box4");
	click4.addEventListener("mousedown", function(){
	var colorc = document.getElementById("text").innerHTML;
	if(colorc == 'green'){
		click4.style.fill = '#48b972';
	} else if(colorc == 'yellow'){
		click4.style.fill = '#f7e735';
	} else if(colorc == 'red'){
		click4.style.fill = '#ef3d4b';
	} else if(colorc == 'blue'){
		click4.style.fill = '#417fc1';
	} else if(colorc == 'purple'){
		click4.style.fill = '#965aa4';
	} else if(colorc == 'white'){
		click4.style.fill = '#fdfefe';
	} else if(colorc == 'lightgreen'){
		click4.style.fill = '#cbe08c';
	} else if(colorc == 'orange'){
		click4.style.fill = '#efa36a';
	} 
	});

	var click5 = document.getElementById("box5");
	click5.addEventListener("mousedown", function(){
	var colorc = document.getElementById("text").innerHTML;
	if(colorc == 'green'){
		click5.style.fill = '#48b972';
	} else if(colorc == 'yellow'){
		click5.style.fill = '#f7e735';
	} else if(colorc == 'red'){
		click5.style.fill = '#ef3d4b';
	} else if(colorc == 'blue'){
		click5.style.fill = '#417fc1';
	} else if(colorc == 'purple'){
		click5.style.fill = '#965aa4';
	} else if(colorc == 'white'){
		click5.style.fill = '#fdfefe';
	} else if(colorc == 'lightgreen'){
		click5.style.fill = '#cbe08c';
	} else if(colorc == 'orange'){
		click5.style.fill = '#efa36a';
	} 
	});

	var click6 = document.getElementById("box6");
	click6.addEventListener("mousedown", function(){
	var colorc = document.getElementById("text").innerHTML;
	if(colorc == 'green'){
		click6.style.fill = '#48b972';
	} else if(colorc == 'yellow'){
		click6.style.fill = '#f7e735';
	} else if(colorc == 'red'){
		click6.style.fill = '#ef3d4b';
	} else if(colorc == 'blue'){
		click6.style.fill = '#417fc1';
	} else if(colorc == 'purple'){
		click6.style.fill = '#965aa4';
	} else if(colorc == 'white'){
		click6.style.fill = '#fdfefe';
	} else if(colorc == 'lightgreen'){
		click6.style.fill = '#cbe08c';
	} else if(colorc == 'orange'){
		click6.style.fill = '#efa36a';
	} 
	});

	var click7 = document.getElementById("box7");
	click7.addEventListener("mousedown", function(){
	var colorc = document.getElementById("text").innerHTML;
	if(colorc == 'green'){
		click7.style.fill = '#48b972';
	} else if(colorc == 'yellow'){
		click7.style.fill = '#f7e735';
	} else if(colorc == 'red'){
		click7.style.fill = '#ef3d4b';
	} else if(colorc == 'blue'){
		click7.style.fill = '#417fc1';
	} else if(colorc == 'purple'){
		click7.style.fill = '#965aa4';
	} else if(colorc == 'white'){
		click7.style.fill = '#fdfefe';
	} else if(colorc == 'lightgreen'){
		click7.style.fill = '#cbe08c';
	} else if(colorc == 'orange'){
		click7.style.fill = '#efa36a';
	} 
	});
-->

		]]>
</script>
</svg>
